<svg width="441" height="91" viewBox="0 0 441 91" fill="none" xmlns="http://www.w3.org/2000/svg">
<g clip-path="url(#clip0_6_19)">
<path d="M441 76.6734H0V91H441V76.6734Z" fill="black"/>
<path d="M22.6335 85.8206C22.8487 85.9149 23.0038 86.0639 23.114 86.2675C23.2191 86.4711 23.2391 86.6797 23.159 86.8882C23.0189 87.2756 22.7586 87.4692 22.3682 87.4692C22.2931 87.4692 22.198 87.4444 22.0779 87.4097L13.7393 84.599H6.27158V86.5953C6.27158 86.8287 6.18649 87.0273 6.02132 87.1912C5.85615 87.355 5.65594 87.4395 5.4207 87.4395C5.18546 87.4395 4.98525 87.355 4.82008 87.1912C4.65491 87.0273 4.56982 86.8287 4.56982 86.5953V80.5369C4.56982 80.3035 4.65491 80.1048 4.82008 79.941C4.98525 79.7771 5.18546 79.6927 5.4207 79.6927H21.172C21.4272 79.6927 21.6725 79.7423 21.9177 79.8367C22.158 79.936 22.3782 80.085 22.5734 80.2836C22.7636 80.4872 22.9238 80.7405 23.0389 81.0384C23.159 81.3413 23.2141 81.6989 23.2141 82.1259C23.2141 82.9751 22.9988 83.6008 22.5734 83.9931C22.143 84.3904 21.6775 84.589 21.172 84.589H18.9847L22.6335 85.8206ZM6.27158 82.9205H21.202C21.2771 82.9006 21.3521 82.841 21.4222 82.7318C21.4873 82.6275 21.5223 82.4289 21.5223 82.1359C21.5223 81.8677 21.4873 81.6691 21.4222 81.5549C21.3521 81.4407 21.2821 81.386 21.202 81.386H6.27158V82.9205Z" fill="white"/>
<path d="M44.8815 86.0093C45.0467 86.1732 45.1318 86.3718 45.1318 86.6052C45.1318 86.8386 45.0467 87.0372 44.8815 87.2011C44.7164 87.365 44.5161 87.4494 44.2809 87.4494H27.3084C27.0732 87.4494 26.8729 87.365 26.7078 87.2011C26.5426 87.0372 26.4575 86.8386 26.4575 86.6052V80.5468C26.4575 80.2935 26.5426 80.085 26.7078 79.9211C26.8729 79.7572 27.0732 79.6778 27.3084 79.6778H44.2809C44.5161 79.6778 44.7164 79.7572 44.8815 79.9161C45.0467 80.08 45.1318 80.2836 45.1318 80.5269C45.1318 80.7554 45.0467 80.949 44.8815 81.1079C44.7164 81.2718 44.5161 81.3513 44.2809 81.3513H28.1543V82.7119H42.1187C42.3539 82.7119 42.5541 82.7963 42.7193 82.9602C42.8845 83.1241 42.9696 83.3227 42.9696 83.5561C42.9696 83.7895 42.8845 83.9882 42.7193 84.152C42.5541 84.3159 42.3539 84.4003 42.1187 84.4003H28.1543V85.761H44.2809C44.5161 85.761 44.7164 85.8454 44.8815 86.0093Z" fill="white"/>
<path d="M66.1585 87.6729C66.0784 87.6729 65.9833 87.653 65.8682 87.6182L50.0318 81.7634V86.6002C50.0318 86.8336 49.9467 87.0323 49.7816 87.1961C49.6164 87.36 49.4162 87.4444 49.181 87.4444C48.9457 87.4444 48.7455 87.36 48.5803 87.1961C48.4152 87.0323 48.3301 86.8336 48.3301 86.6002V80.5418C48.3301 80.2737 48.4552 80.0403 48.7105 79.8466C48.8106 79.7721 48.9257 79.7225 49.0658 79.7026C49.201 79.6827 49.3361 79.7026 49.4713 79.7572L65.3076 85.612V80.5468C65.3076 80.3134 65.3877 80.1148 65.5579 79.9509C65.723 79.787 65.9232 79.7026 66.1585 79.7026C66.3937 79.7026 66.5939 79.787 66.7591 79.9509C66.9243 80.1148 67.0094 80.3134 67.0094 80.5468V86.8336C67.0094 87.1018 66.8892 87.3352 66.654 87.5288C66.4938 87.6282 66.3286 87.6729 66.1585 87.6729Z" fill="white"/>
<path d="M88.6365 79.9509C88.8017 80.1148 88.8868 80.3134 88.8868 80.5468C88.8868 80.7802 88.8017 80.9788 88.6365 81.1427C88.4714 81.3066 88.2712 81.391 88.0359 81.391H80.413V86.6052C80.413 86.8386 80.328 87.0372 80.1628 87.2011C79.9976 87.365 79.7974 87.4494 79.5622 87.4494C79.3269 87.4494 79.1267 87.365 78.9615 87.2011C78.7964 87.0372 78.7113 86.8386 78.7113 86.6052V81.391H71.0584C70.8232 81.391 70.6229 81.3066 70.4578 81.1427C70.2926 80.9788 70.2075 80.7802 70.2075 80.5468C70.2075 80.3134 70.2926 80.1148 70.4578 79.9509C70.6229 79.787 70.8232 79.7026 71.0584 79.7026H88.0309C88.2712 79.7026 88.4714 79.787 88.6365 79.9509Z" fill="white"/>
<path d="M106.825 79.6778C107.291 79.6778 107.761 79.7423 108.242 79.8814C108.717 80.0154 109.143 80.2389 109.513 80.5468C109.884 80.8547 110.184 81.2569 110.419 81.7485C110.654 82.2402 110.774 82.846 110.774 83.5611V86.6002C110.774 86.8336 110.689 87.0323 110.524 87.1961C110.359 87.36 110.159 87.4444 109.924 87.4444C109.688 87.4444 109.488 87.36 109.323 87.1961C109.153 87.0323 109.073 86.8336 109.073 86.6002V84.9764H93.797V86.6002C93.797 86.8336 93.7169 87.0323 93.5517 87.1961C93.3916 87.36 93.1964 87.4444 92.9661 87.4444C92.7359 87.4444 92.5357 87.36 92.3655 87.1961C92.1953 87.0323 92.1052 86.8336 92.1052 86.6002V83.5611C92.1052 82.846 92.2253 82.2402 92.4606 81.7485C92.6958 81.252 93.0012 80.8547 93.3815 80.5468C93.7619 80.2389 94.1824 80.0154 94.6529 79.8814C95.1233 79.7423 95.5988 79.6778 96.0843 79.6778H100.959H101.955H106.825ZM94.6428 81.679C94.1373 81.9968 93.852 82.5332 93.797 83.2979H109.073C109.018 82.5332 108.732 81.9968 108.227 81.679C107.856 81.4655 107.386 81.3562 106.82 81.3562H101.93H100.934H96.0443C95.4837 81.3562 95.0132 81.4655 94.6428 81.679Z" fill="white"/>
<path d="M131.766 87.4444H117.922C117.451 87.4444 116.981 87.3749 116.505 87.2408C116.03 87.1018 115.604 86.8833 115.234 86.5754C114.864 86.2625 114.563 85.8603 114.328 85.3587C114.093 84.8572 113.973 84.2464 113.973 83.5313V80.517C113.973 80.2836 114.058 80.085 114.223 79.9211C114.388 79.7572 114.588 79.6778 114.824 79.6778C115.059 79.6778 115.259 79.7572 115.424 79.9261C115.589 80.0899 115.674 80.2886 115.674 80.522V83.5512C115.674 84.4848 115.96 85.1154 116.52 85.4432C116.891 85.6567 117.356 85.761 117.922 85.761H131.771C132.026 85.761 132.236 85.8454 132.402 86.0043C132.567 86.1682 132.652 86.3619 132.652 86.5903C132.652 86.8336 132.567 87.0372 132.402 87.2011C132.231 87.365 132.021 87.4444 131.766 87.4444Z" fill="white"/>
<path d="M161.277 87.4444C161.101 87.4444 160.936 87.3948 160.776 87.3004L152.302 81.242C152.112 81.0881 151.992 80.8994 151.952 80.6759C151.912 80.4574 151.962 80.2439 152.097 80.0552C152.237 79.8615 152.417 79.7423 152.653 79.7026C152.888 79.6629 153.098 79.7125 153.293 79.8466L161.271 85.5574L169.245 79.8466C169.44 79.7125 169.655 79.6629 169.89 79.7026C170.126 79.7423 170.311 79.8565 170.441 80.0552C170.581 80.2439 170.631 80.4525 170.591 80.6759C170.551 80.8994 170.436 81.0881 170.236 81.242L161.762 87.3004C161.617 87.3948 161.447 87.4444 161.277 87.4444Z" fill="white"/>
<path d="M174.68 87.4444C174.445 87.4444 174.245 87.36 174.08 87.1961C173.914 87.0323 173.829 86.8336 173.829 86.6002V80.5418C173.829 80.3084 173.914 80.1098 174.08 79.9459C174.245 79.7821 174.445 79.6976 174.68 79.6976C174.915 79.6976 175.116 79.7821 175.281 79.9459C175.446 80.1098 175.531 80.3084 175.531 80.5418V86.6002C175.531 86.8336 175.446 87.0323 175.281 87.1961C175.116 87.36 174.915 87.4444 174.68 87.4444Z" fill="white"/>
<path d="M195.747 80.2538C195.937 80.368 196.133 80.522 196.333 80.7007C196.523 80.8845 196.703 81.103 196.858 81.3662C197.013 81.6244 197.144 81.9372 197.254 82.2948C197.359 82.6523 197.414 83.0595 197.414 83.5263C197.414 84.2414 197.294 84.8522 197.059 85.3538C196.823 85.8553 196.523 86.2576 196.153 86.5704C195.782 86.8783 195.357 87.1018 194.881 87.2359C194.401 87.3699 193.93 87.4395 193.465 87.4395H179.585C179.35 87.4395 179.15 87.355 178.985 87.1912C178.82 87.0273 178.735 86.8237 178.735 86.5704V80.512C178.735 80.2588 178.82 80.0552 178.985 79.8913C179.15 79.7274 179.35 79.643 179.585 79.643H193.465C193.7 79.643 194.025 79.6778 194.441 79.7473C194.861 79.8168 195.297 79.9856 195.747 80.2538ZM194.866 85.4432C195.432 85.0906 195.712 84.455 195.712 83.5313C195.712 83.0844 195.642 82.7119 195.507 82.4289C195.367 82.1458 195.187 81.9174 194.966 81.7535C194.741 81.5896 194.496 81.4754 194.236 81.4208C193.975 81.3612 193.72 81.3314 193.465 81.3314H180.436V85.761H193.465C194.01 85.761 194.481 85.6517 194.866 85.4432Z" fill="white"/>
<path d="M219.041 86.0093C219.206 86.1732 219.291 86.3718 219.291 86.6052C219.291 86.8386 219.206 87.0372 219.041 87.2011C218.876 87.365 218.676 87.4494 218.441 87.4494H201.468C201.233 87.4494 201.033 87.365 200.867 87.2011C200.702 87.0372 200.617 86.8386 200.617 86.6052V80.5468C200.617 80.2935 200.702 80.085 200.867 79.9211C201.033 79.7572 201.233 79.6778 201.468 79.6778H218.441C218.676 79.6778 218.876 79.7572 219.041 79.9161C219.206 80.08 219.291 80.2836 219.291 80.5269C219.291 80.7554 219.206 80.949 219.041 81.1079C218.876 81.2718 218.676 81.3513 218.441 81.3513H202.314V82.7119H216.278C216.514 82.7119 216.714 82.7963 216.879 82.9602C217.044 83.1241 217.129 83.3227 217.129 83.5561C217.129 83.7895 217.044 83.9882 216.879 84.152C216.714 84.3159 216.514 84.4003 216.278 84.4003H202.314V85.761H218.441C218.676 85.761 218.876 85.8454 219.041 86.0093Z" fill="white"/>
<path d="M239.502 80.2538C239.888 80.4872 240.268 80.8596 240.628 81.3711C240.989 81.8826 241.169 82.6126 241.169 83.5611C241.169 84.0428 241.114 84.4649 241.009 84.8224C240.904 85.18 240.769 85.4928 240.613 85.761C240.458 86.0341 240.278 86.2576 240.088 86.4314C239.893 86.6002 239.698 86.7492 239.502 86.8634C239.112 87.1167 238.711 87.2756 238.301 87.3401C237.891 87.4097 237.53 87.4444 237.215 87.4444H236.134H226.444C226.189 87.4444 225.853 87.4097 225.433 87.3401C225.012 87.2756 224.587 87.1167 224.156 86.8634C223.966 86.7442 223.776 86.5953 223.586 86.4165C223.396 86.2327 223.216 86.0093 223.05 85.7511C222.89 85.4879 222.755 85.175 222.65 84.8075C222.545 84.4401 222.49 84.0279 222.49 83.5611C222.49 82.846 222.61 82.2402 222.845 81.7485C223.08 81.252 223.386 80.8547 223.766 80.5468C224.146 80.2389 224.567 80.0154 225.037 79.8814C225.508 79.7423 225.983 79.6778 226.469 79.6778H228.015H237.22C237.475 79.6778 237.806 79.7026 238.226 79.7622C238.646 79.8218 239.072 79.9857 239.502 80.2538ZM238.626 85.4134C239.192 85.1055 239.472 84.4848 239.472 83.5611C239.472 83.0943 239.402 82.7219 239.267 82.4438C239.127 82.1607 238.947 81.9422 238.722 81.7783C238.501 81.6095 238.251 81.5002 237.991 81.4456C237.725 81.391 237.47 81.3562 237.215 81.3562H236.129H226.439C225.873 81.3562 225.408 81.4605 225.032 81.6741C224.467 82.0018 224.187 82.6275 224.187 83.5561C224.187 84.0229 224.257 84.3904 224.392 84.6735C224.532 84.9565 224.712 85.175 224.937 85.3389C225.158 85.5028 225.408 85.612 225.668 85.6716C225.933 85.7262 226.189 85.756 226.444 85.756H227.995H237.215C237.806 85.761 238.271 85.6468 238.626 85.4134Z" fill="white"/>
<path d="M278.868 86.0093C279.033 86.1732 279.118 86.3718 279.118 86.6052C279.118 86.8386 279.033 87.0372 278.868 87.2011C278.703 87.365 278.503 87.4494 278.267 87.4494H261.295C261.059 87.4494 260.859 87.365 260.694 87.2011C260.529 87.0372 260.444 86.8386 260.444 86.6052V80.5468C260.444 80.2935 260.529 80.085 260.694 79.9211C260.859 79.7572 261.059 79.6778 261.295 79.6778H278.267C278.503 79.6778 278.703 79.7572 278.868 79.9161C279.033 80.08 279.118 80.2836 279.118 80.5269C279.118 80.7554 279.033 80.949 278.868 81.1079C278.703 81.2718 278.503 81.3513 278.267 81.3513H262.141V82.7119H276.105C276.34 82.7119 276.54 82.7963 276.706 82.9602C276.871 83.1241 276.956 83.3227 276.956 83.5561C276.956 83.7895 276.871 83.9882 276.706 84.152C276.54 84.3159 276.34 84.4003 276.105 84.4003H262.141V85.761H278.267C278.503 85.761 278.703 85.8454 278.868 86.0093Z" fill="white"/>
<path d="M300.971 83.5611C300.971 84.0428 300.916 84.4649 300.81 84.8224C300.705 85.18 300.57 85.4928 300.415 85.761C300.26 86.0341 300.085 86.2576 299.89 86.4413C299.694 86.63 299.504 86.774 299.304 86.8883C299.034 87.0273 298.748 87.1415 298.458 87.2408L299.304 87.6431C299.519 87.7424 299.664 87.8963 299.739 88.1099C299.814 88.3234 299.809 88.5369 299.714 88.7505C299.559 89.0782 299.294 89.2421 298.924 89.2421C298.848 89.2421 298.728 89.2222 298.573 89.1875L294.864 87.4494H287.677H287.587H286.27C286.015 87.4494 285.685 87.4146 285.264 87.3451C284.844 87.2806 284.419 87.1216 283.993 86.8684C283.608 86.635 283.227 86.2625 282.867 85.7511C282.507 85.2396 282.326 84.5096 282.326 83.5611C282.326 82.846 282.447 82.2501 282.682 81.7634C282.917 81.2768 283.217 80.8845 283.588 80.5766C283.958 80.2637 284.374 80.0453 284.844 79.9062C285.314 79.7721 285.79 79.7026 286.275 79.7026H287.827H297.027C297.282 79.7026 297.617 79.7324 298.038 79.792C298.458 79.8466 298.878 80.0105 299.309 80.2836C299.504 80.4028 299.694 80.5518 299.895 80.7305C300.09 80.9193 300.265 81.1377 300.42 81.4009C300.575 81.6592 300.705 81.9671 300.815 82.3246C300.916 82.6871 300.971 83.0943 300.971 83.5611ZM298.428 85.4432C298.994 85.1105 299.274 84.4848 299.274 83.5611C299.274 83.1142 299.204 82.7517 299.069 82.4736C298.929 82.1955 298.748 81.972 298.528 81.8081C298.308 81.6443 298.058 81.535 297.797 81.4754C297.532 81.4158 297.277 81.386 297.022 81.386H295.94H286.27C285.705 81.386 285.239 81.4903 284.869 81.7039C284.303 82.0366 284.023 82.6523 284.023 83.5611C284.023 84.0279 284.093 84.3954 284.228 84.6784C284.369 84.9615 284.549 85.18 284.769 85.3439C284.989 85.5077 285.239 85.617 285.5 85.6766C285.765 85.7312 286.02 85.761 286.275 85.761H287.827H297.027C297.587 85.761 298.058 85.6567 298.428 85.4432Z" fill="white"/>
<path d="M321.982 79.6778C322.212 79.6778 322.408 79.7572 322.568 79.9211C322.733 80.085 322.813 80.2836 322.813 80.517V83.5611C322.813 84.0428 322.758 84.4649 322.658 84.8224C322.553 85.18 322.418 85.4928 322.257 85.761C322.097 86.0341 321.917 86.2576 321.727 86.4314C321.537 86.6002 321.342 86.7492 321.151 86.8634C320.761 87.1167 320.361 87.2756 319.955 87.3401C319.545 87.4097 319.184 87.4444 318.874 87.4444H317.823H317.793H308.123C307.888 87.4444 307.557 87.4097 307.127 87.3401C306.701 87.2756 306.271 87.1167 305.841 86.8634C305.455 86.63 305.075 86.2576 304.714 85.7461C304.354 85.2346 304.174 84.5046 304.174 83.5561V80.512C304.174 80.2786 304.259 80.08 304.424 79.9161C304.589 79.7522 304.789 79.6728 305.025 79.6728C305.26 79.6728 305.46 79.7522 305.625 79.9161C305.791 80.08 305.876 80.2786 305.876 80.512V83.5561C305.876 84.0229 305.946 84.3904 306.081 84.6734C306.221 84.9565 306.401 85.175 306.621 85.3389C306.842 85.5028 307.092 85.612 307.352 85.6716C307.617 85.7262 307.873 85.756 308.128 85.756H309.68H318.879C319.465 85.756 319.93 85.6418 320.285 85.4084C320.851 85.1005 321.131 84.4798 321.131 83.5561V80.512C321.131 80.2786 321.211 80.08 321.377 79.9161C321.527 79.7572 321.732 79.6778 321.982 79.6778Z" fill="white"/>
<path d="M326.908 87.4444C326.672 87.4444 326.472 87.36 326.307 87.1961C326.142 87.0323 326.057 86.8336 326.057 86.6002V80.5418C326.057 80.3084 326.142 80.1098 326.307 79.9459C326.472 79.7821 326.672 79.6976 326.908 79.6976C327.143 79.6976 327.343 79.7821 327.508 79.9459C327.673 80.1098 327.758 80.3084 327.758 80.5418V86.6002C327.758 86.8336 327.673 87.0323 327.508 87.1961C327.338 87.36 327.138 87.4444 326.908 87.4444Z" fill="white"/>
<path d="M347.589 79.7026C348.074 79.7026 348.535 79.8963 348.96 80.2836C349.391 80.6709 349.606 81.2867 349.606 82.1409C349.606 82.99 349.391 83.6157 348.96 84.008C348.535 84.4053 348.074 84.6039 347.589 84.6039H332.658V86.6002C332.658 86.8336 332.573 87.0323 332.408 87.1961C332.243 87.36 332.043 87.4444 331.807 87.4444C331.572 87.4444 331.372 87.36 331.207 87.1961C331.042 87.0323 330.957 86.8336 330.957 86.6002V80.5418C330.957 80.3084 331.042 80.1098 331.207 79.9459C331.372 79.7821 331.572 79.6976 331.807 79.6976H347.589V79.7026ZM347.589 82.9205C347.664 82.9006 347.739 82.841 347.809 82.7318C347.874 82.6275 347.909 82.4289 347.909 82.1359C347.909 81.8677 347.874 81.6691 347.809 81.5549C347.739 81.4407 347.669 81.386 347.589 81.386H332.658V82.9205H347.589Z" fill="white"/>
<path d="M362.129 87.4742C361.934 87.4742 361.768 87.4146 361.633 87.3004L354.506 82.2004V86.6052C354.506 86.8386 354.421 87.0372 354.256 87.2011C354.091 87.365 353.89 87.4494 353.655 87.4494C353.42 87.4494 353.22 87.365 353.054 87.2011C352.889 87.0372 352.804 86.8386 352.804 86.6052V80.5468C352.804 80.1992 352.949 79.9509 353.245 79.792C353.555 79.638 353.855 79.6579 354.151 79.8466L362.124 85.5872L370.102 79.8466C370.392 79.6579 370.693 79.6331 371.008 79.792C371.298 79.9459 371.443 80.1992 371.443 80.5468V86.6052C371.443 86.8386 371.358 87.0372 371.193 87.2011C371.028 87.365 370.828 87.4494 370.593 87.4494C370.357 87.4494 370.157 87.365 369.992 87.2011C369.827 87.0372 369.742 86.8386 369.742 86.6052V82.2004L362.614 87.3004C362.474 87.4146 362.309 87.4742 362.129 87.4742Z" fill="white"/>
<path d="M393.081 86.0093C393.246 86.1732 393.331 86.3718 393.331 86.6052C393.331 86.8386 393.246 87.0372 393.081 87.2011C392.916 87.365 392.715 87.4494 392.48 87.4494H375.508C375.272 87.4494 375.072 87.365 374.907 87.2011C374.742 87.0372 374.657 86.8386 374.657 86.6052V80.5468C374.657 80.2935 374.742 80.085 374.907 79.9211C375.072 79.7572 375.272 79.6778 375.508 79.6778H392.48C392.715 79.6778 392.916 79.7572 393.081 79.9161C393.246 80.08 393.331 80.2836 393.331 80.5269C393.331 80.7554 393.246 80.949 393.081 81.1079C392.916 81.2718 392.715 81.3513 392.48 81.3513H376.353V82.7119H390.318C390.553 82.7119 390.753 82.7963 390.919 82.9602C391.084 83.1241 391.169 83.3227 391.169 83.5561C391.169 83.7895 391.084 83.9882 390.919 84.152C390.753 84.3159 390.553 84.4003 390.318 84.4003H376.353V85.761H392.48C392.72 85.761 392.916 85.8454 393.081 86.0093Z" fill="white"/>
<path d="M414.363 87.6729C414.282 87.6729 414.187 87.653 414.072 87.6182L398.236 81.7634V86.6002C398.236 86.8336 398.151 87.0323 397.986 87.1961C397.821 87.36 397.62 87.4444 397.385 87.4444C397.15 87.4444 396.95 87.36 396.784 87.1961C396.619 87.0323 396.534 86.8336 396.534 86.6002V80.5418C396.534 80.2737 396.659 80.0403 396.915 79.8466C397.015 79.7721 397.13 79.7225 397.27 79.7026C397.405 79.6827 397.54 79.7026 397.675 79.7572L413.512 85.612V80.5468C413.512 80.3134 413.592 80.1148 413.762 79.9509C413.927 79.787 414.127 79.7026 414.363 79.7026C414.598 79.7026 414.798 79.787 414.963 79.9509C415.128 80.1148 415.213 80.3134 415.213 80.5468V86.8336C415.213 87.1018 415.093 87.3352 414.858 87.5288C414.703 87.6282 414.538 87.6729 414.363 87.6729Z" fill="white"/>
<path d="M436.841 79.9509C437.006 80.1148 437.091 80.3134 437.091 80.5468C437.091 80.7802 437.006 80.9788 436.841 81.1427C436.676 81.3066 436.476 81.391 436.24 81.391H428.617V86.6052C428.617 86.8386 428.532 87.0372 428.367 87.2011C428.202 87.365 428.002 87.4494 427.767 87.4494C427.531 87.4494 427.331 87.365 427.166 87.2011C427.001 87.0372 426.916 86.8386 426.916 86.6052V81.391H419.263C419.027 81.391 418.827 81.3066 418.662 81.1427C418.497 80.9788 418.412 80.7802 418.412 80.5468C418.412 80.3134 418.497 80.1148 418.662 79.9509C418.827 79.787 419.027 79.7026 419.263 79.7026H436.235C436.475 79.7026 436.676 79.787 436.841 79.9509Z" fill="white"/>
<path d="M232.034 50.3045V60.1668H280.529L269.428 50.3045H232.034Z" fill="black"/>
<path d="M283.763 31.2057H273.823H260.879V34.3243L266.79 41.068H273.823V44.3802V49.9966L283.763 58.5827V40.1493V31.2057Z" fill="black"/>
<path d="M24.9907 60.1668H32.5235L34.931 57.7782V32.6706L24.9907 24.0945V60.1668Z" fill="black"/>
<path d="M29.9609 9.64377H24.9908H0V12.7673L5.9111 19.511H25.0058L34.931 28.0772V19.511H54.0107L59.9268 12.7673V9.64377H34.931H29.9609Z" fill="black"/>
<path d="M142.192 17.7878V60.1668H152.132V26.3739L142.192 17.7878Z" fill="black"/>
<path d="M219.882 67.0247L207.589 56.4126V54.595V50.3144V12.2906H204.526L197.649 18.2298V41.7334V46.014V47.8315L153.428 9.64377L142.252 0H130.199V2.84049L208.335 70.3022H219.882V67.0247Z" fill="black"/>
<path d="M363.325 60.1668H373.265V26.3739L363.325 17.7878V60.1668Z" fill="black"/>
<path d="M351.317 2.82559L363.325 13.1944L417.731 60.1668L429.468 70.3022H441V67.0048L428.727 56.4126V54.595V50.3144V12.2906H425.664L418.787 18.2298V41.7334V46.014V47.8315L374.561 9.64377L363.39 0H351.317V2.82559Z" fill="black"/>
<path d="M252.145 19.511H259.202H275.114L281.025 12.7673V9.64377H253.717H239.657L234.116 15.141L226.058 23.146L218.365 30.7736V32.6458V60.1668H228.305V34.8606L243.776 19.511H252.145Z" fill="black"/>
<path d="M312.157 19.511H324.61H331.667H347.579L353.49 12.7673V9.64377H302.497L312.157 19.511Z" fill="black"/>
<path d="M331.667 50.3045H324.61H312.157L302.497 60.1668H353.49V57.0482L347.579 50.3045H331.667Z" fill="black"/>
<path d="M320.3 32.7302L297.687 9.64377H290.83V16.7897L308.373 34.9053L290.83 53.0208V60.1668H297.687L320.3 37.0803V32.7302Z" fill="black"/>
<path d="M132.387 12.7673V9.64377H81.394L91.059 19.511H126.476L132.387 12.7673Z" fill="black"/>
<path d="M132.387 57.0482L126.476 50.3045H91.059L81.394 60.1668H132.387V57.0482Z" fill="black"/>
<path d="M99.1975 32.7302L76.5841 9.64377H69.7271V16.7897L87.2702 34.9053L69.7271 53.0208V60.1668H76.5841L99.1975 37.0803V32.7302Z" fill="black"/>
</g>
<defs>
<clipPath id="clip0_6_19">
<rect width="441" height="91" fill="white"/>
</clipPath>
</defs>
</svg>
